<mxfile host="app.diagrams.net" modified="2020-07-25T22:57:33.001Z" agent="5.0 (Macintosh; Intel Mac OS X 10_15_5) AppleWebKit/537.36 (KHTML, like Gecko) Chrome/84.0.4147.89 Safari/537.36" etag="AJSzyH7P8uOv4CXNyvbm" version="13.5.3" type="github">
  <diagram id="6nGBWaBdYeNlFKXkY8Jf" name="Page-1">
    <mxGraphModel dx="1426" dy="923" grid="1" gridSize="10" guides="1" tooltips="1" connect="1" arrows="1" fold="1" page="1" pageScale="1" pageWidth="850" pageHeight="1100" math="0" shadow="0">
      <root>
        <mxCell id="0" />
        <mxCell id="1" parent="0" />
        <mxCell id="ZP_4dSVxsUsFEQu9euvE-4" value="&lt;div&gt;&lt;span style=&quot;color: rgb(34 , 34 , 34) ; background-color: rgb(255 , 255 , 255)&quot;&gt;height&lt;/span&gt;&lt;br&gt;&lt;/div&gt;&lt;div&gt;&lt;span style=&quot;background-color: rgb(255 , 255 , 255)&quot;&gt;&lt;font color=&quot;#ff0000&quot;&gt;UUID&lt;/font&gt;&lt;/span&gt;&lt;/div&gt;&lt;div&gt;&lt;div&gt;timestamp(UTC)&lt;/div&gt;&lt;/div&gt;&lt;div&gt;lastHash&lt;/div&gt;&lt;div&gt;hash&lt;/div&gt;&lt;div&gt;&lt;br&gt;&lt;/div&gt;&lt;div&gt;&lt;font color=&quot;#ff0000&quot;&gt;validator&lt;/font&gt;&lt;/div&gt;&lt;div&gt;signature&lt;/div&gt;&lt;div&gt;&lt;br style=&quot;text-align: left&quot;&gt;&lt;/div&gt;&lt;div&gt;&lt;font color=&quot;#00cc00&quot;&gt;data&lt;/font&gt;&lt;br&gt;&lt;/div&gt;" style="rounded=0;whiteSpace=wrap;html=1;" parent="1" vertex="1">
          <mxGeometry x="160" y="475" width="90" height="150" as="geometry" />
        </mxCell>
        <mxCell id="ZP_4dSVxsUsFEQu9euvE-5" value="&lt;div&gt;&lt;span style=&quot;color: rgb(34 , 34 , 34) ; background-color: rgb(255 , 255 , 255)&quot;&gt;height = 0&lt;/span&gt;&lt;br&gt;&lt;/div&gt;&lt;div&gt;&lt;span style=&quot;color: rgb(34 , 34 , 34) ; background-color: rgb(255 , 255 , 255)&quot;&gt;UUID = 0&lt;/span&gt;&lt;/div&gt;&lt;div&gt;timestamp = 0&lt;/div&gt;&lt;div&gt;lastHash = 0&lt;/div&gt;&lt;div&gt;hash = 0&lt;/div&gt;&lt;div&gt;&lt;span&gt;&lt;br&gt;&lt;/span&gt;&lt;/div&gt;&lt;div&gt;&lt;span&gt;validator = 0&lt;/span&gt;&lt;br&gt;&lt;/div&gt;&lt;div&gt;signature = 0&lt;/div&gt;&lt;div&gt;&lt;br style=&quot;text-align: left&quot;&gt;&lt;/div&gt;&lt;div&gt;&lt;div&gt;&lt;font color=&quot;#00cc00&quot;&gt;data = 0&lt;/font&gt;&lt;/div&gt;&lt;/div&gt;" style="rounded=0;whiteSpace=wrap;html=1;" parent="1" vertex="1">
          <mxGeometry x="30" y="475" width="90" height="150" as="geometry" />
        </mxCell>
        <mxCell id="ZP_4dSVxsUsFEQu9euvE-6" value="" style="endArrow=classic;html=1;exitX=0;exitY=0.5;exitDx=0;exitDy=0;entryX=1;entryY=0.5;entryDx=0;entryDy=0;" parent="1" source="ZP_4dSVxsUsFEQu9euvE-4" target="ZP_4dSVxsUsFEQu9euvE-5" edge="1">
          <mxGeometry width="50" height="50" relative="1" as="geometry">
            <mxPoint x="400" y="475" as="sourcePoint" />
            <mxPoint x="450" y="425" as="targetPoint" />
          </mxGeometry>
        </mxCell>
        <mxCell id="ZP_4dSVxsUsFEQu9euvE-8" style="edgeStyle=orthogonalEdgeStyle;rounded=0;orthogonalLoop=1;jettySize=auto;html=1;entryX=1;entryY=0.5;entryDx=0;entryDy=0;" parent="1" source="ZP_4dSVxsUsFEQu9euvE-7" target="ZP_4dSVxsUsFEQu9euvE-4" edge="1">
          <mxGeometry relative="1" as="geometry" />
        </mxCell>
        <mxCell id="ZP_4dSVxsUsFEQu9euvE-7" value="&lt;div&gt;&lt;span style=&quot;color: rgb(34 , 34 , 34) ; background-color: rgb(255 , 255 , 255)&quot;&gt;height&lt;/span&gt;&lt;br&gt;&lt;/div&gt;&lt;div&gt;&lt;span style=&quot;background-color: rgb(255 , 255 , 255)&quot;&gt;&lt;font color=&quot;#ff0000&quot;&gt;UUID&lt;/font&gt;&lt;/span&gt;&lt;/div&gt;&lt;div&gt;&lt;div&gt;timestamp(UTC)&lt;/div&gt;&lt;/div&gt;&lt;div&gt;lastHash&lt;/div&gt;&lt;div&gt;hash&lt;/div&gt;&lt;div&gt;&lt;br&gt;&lt;/div&gt;&lt;div&gt;&lt;font color=&quot;#ff0000&quot;&gt;validator&lt;/font&gt;&lt;/div&gt;&lt;div&gt;signature&lt;/div&gt;&lt;div&gt;&lt;br style=&quot;text-align: left&quot;&gt;&lt;/div&gt;&lt;div&gt;&lt;font color=&quot;#00cc00&quot;&gt;data&lt;/font&gt;&lt;br&gt;&lt;/div&gt;" style="rounded=0;whiteSpace=wrap;html=1;" parent="1" vertex="1">
          <mxGeometry x="280" y="475" width="90" height="150" as="geometry" />
        </mxCell>
        <mxCell id="ZP_4dSVxsUsFEQu9euvE-22" style="edgeStyle=orthogonalEdgeStyle;rounded=0;orthogonalLoop=1;jettySize=auto;html=1;entryX=1;entryY=0.5;entryDx=0;entryDy=0;dashed=1;" parent="1" source="ZP_4dSVxsUsFEQu9euvE-15" target="ZP_4dSVxsUsFEQu9euvE-21" edge="1">
          <mxGeometry relative="1" as="geometry" />
        </mxCell>
        <mxCell id="ZP_4dSVxsUsFEQu9euvE-23" style="edgeStyle=orthogonalEdgeStyle;rounded=0;orthogonalLoop=1;jettySize=auto;html=1;entryX=0.5;entryY=0;entryDx=0;entryDy=0;" parent="1" source="ZP_4dSVxsUsFEQu9euvE-15" target="ZP_4dSVxsUsFEQu9euvE-7" edge="1">
          <mxGeometry relative="1" as="geometry" />
        </mxCell>
        <mxCell id="ZP_4dSVxsUsFEQu9euvE-15" value="&lt;div&gt;&lt;span style=&quot;color: rgb(34 , 34 , 34) ; background-color: rgb(255 , 255 , 255)&quot;&gt;height&lt;/span&gt;&lt;br&gt;&lt;/div&gt;&lt;div&gt;&lt;span style=&quot;background-color: rgb(255 , 255 , 255)&quot;&gt;&lt;font color=&quot;#ff0000&quot;&gt;UUID&lt;/font&gt;&lt;/span&gt;&lt;/div&gt;&lt;div&gt;&lt;div&gt;timestamp(UTC)&lt;/div&gt;&lt;/div&gt;&lt;div&gt;lastHash&lt;/div&gt;&lt;div&gt;hash&lt;/div&gt;&lt;div&gt;&lt;br&gt;&lt;/div&gt;&lt;div&gt;&lt;font color=&quot;#ff0000&quot;&gt;validator&lt;/font&gt;&lt;/div&gt;&lt;div&gt;signature&lt;/div&gt;&lt;div&gt;&lt;br style=&quot;text-align: left&quot;&gt;&lt;/div&gt;&lt;div&gt;&lt;br&gt;&lt;/div&gt;" style="rounded=0;whiteSpace=wrap;html=1;" parent="1" vertex="1">
          <mxGeometry x="280" y="140" width="90" height="150" as="geometry" />
        </mxCell>
        <mxCell id="ZP_4dSVxsUsFEQu9euvE-16" value="&lt;div&gt;&lt;span style=&quot;color: rgb(34 , 34 , 34) ; background-color: rgb(255 , 255 , 255)&quot;&gt;height&lt;/span&gt;&lt;br&gt;&lt;/div&gt;&lt;div&gt;&lt;span style=&quot;background-color: rgb(255 , 255 , 255)&quot;&gt;&lt;font color=&quot;#ff0000&quot;&gt;UUID&lt;/font&gt;&lt;/span&gt;&lt;/div&gt;&lt;div&gt;&lt;div&gt;timestamp(UTC)&lt;/div&gt;&lt;/div&gt;&lt;div&gt;lastHash&lt;/div&gt;&lt;div&gt;hash&lt;/div&gt;&lt;div&gt;&lt;br&gt;&lt;/div&gt;&lt;div&gt;&lt;font color=&quot;#ff0000&quot;&gt;validator&lt;/font&gt;&lt;/div&gt;&lt;div&gt;signature&lt;/div&gt;&lt;div&gt;&lt;br style=&quot;text-align: left&quot;&gt;&lt;/div&gt;&lt;div&gt;&lt;br&gt;&lt;/div&gt;" style="rounded=0;whiteSpace=wrap;html=1;dashed=1;" parent="1" vertex="1">
          <mxGeometry x="90" y="90" width="90" height="150" as="geometry" />
        </mxCell>
        <mxCell id="ZP_4dSVxsUsFEQu9euvE-17" value="&lt;div&gt;&lt;span style=&quot;color: rgb(34 , 34 , 34) ; background-color: rgb(255 , 255 , 255)&quot;&gt;height&lt;/span&gt;&lt;br&gt;&lt;/div&gt;&lt;div&gt;&lt;span style=&quot;background-color: rgb(255 , 255 , 255)&quot;&gt;&lt;font color=&quot;#ff0000&quot;&gt;UUID&lt;/font&gt;&lt;/span&gt;&lt;/div&gt;&lt;div&gt;&lt;div&gt;timestamp(UTC)&lt;/div&gt;&lt;/div&gt;&lt;div&gt;lastHash&lt;/div&gt;&lt;div&gt;hash&lt;/div&gt;&lt;div&gt;&lt;br&gt;&lt;/div&gt;&lt;div&gt;&lt;font color=&quot;#ff0000&quot;&gt;validator&lt;/font&gt;&lt;/div&gt;&lt;div&gt;signature&lt;/div&gt;&lt;div&gt;&lt;br style=&quot;text-align: left&quot;&gt;&lt;/div&gt;&lt;div&gt;&lt;br&gt;&lt;/div&gt;" style="rounded=0;whiteSpace=wrap;html=1;dashed=1;" parent="1" vertex="1">
          <mxGeometry x="100" y="100" width="90" height="150" as="geometry" />
        </mxCell>
        <mxCell id="ZP_4dSVxsUsFEQu9euvE-18" value="&lt;div&gt;&lt;span style=&quot;color: rgb(34 , 34 , 34) ; background-color: rgb(255 , 255 , 255)&quot;&gt;height&lt;/span&gt;&lt;br&gt;&lt;/div&gt;&lt;div&gt;&lt;span style=&quot;background-color: rgb(255 , 255 , 255)&quot;&gt;&lt;font color=&quot;#ff0000&quot;&gt;UUID&lt;/font&gt;&lt;/span&gt;&lt;/div&gt;&lt;div&gt;&lt;div&gt;timestamp(UTC)&lt;/div&gt;&lt;/div&gt;&lt;div&gt;lastHash&lt;/div&gt;&lt;div&gt;hash&lt;/div&gt;&lt;div&gt;&lt;br&gt;&lt;/div&gt;&lt;div&gt;&lt;font color=&quot;#ff0000&quot;&gt;validator&lt;/font&gt;&lt;/div&gt;&lt;div&gt;signature&lt;/div&gt;&lt;div&gt;&lt;br style=&quot;text-align: left&quot;&gt;&lt;/div&gt;&lt;div&gt;&lt;br&gt;&lt;/div&gt;" style="rounded=0;whiteSpace=wrap;html=1;dashed=1;" parent="1" vertex="1">
          <mxGeometry x="110" y="110" width="90" height="150" as="geometry" />
        </mxCell>
        <mxCell id="ZP_4dSVxsUsFEQu9euvE-19" value="&lt;div&gt;&lt;span style=&quot;color: rgb(34 , 34 , 34) ; background-color: rgb(255 , 255 , 255)&quot;&gt;height&lt;/span&gt;&lt;br&gt;&lt;/div&gt;&lt;div&gt;&lt;span style=&quot;background-color: rgb(255 , 255 , 255)&quot;&gt;&lt;font color=&quot;#ff0000&quot;&gt;UUID&lt;/font&gt;&lt;/span&gt;&lt;/div&gt;&lt;div&gt;&lt;div&gt;timestamp(UTC)&lt;/div&gt;&lt;/div&gt;&lt;div&gt;lastHash&lt;/div&gt;&lt;div&gt;hash&lt;/div&gt;&lt;div&gt;&lt;br&gt;&lt;/div&gt;&lt;div&gt;&lt;font color=&quot;#ff0000&quot;&gt;validator&lt;/font&gt;&lt;/div&gt;&lt;div&gt;signature&lt;/div&gt;&lt;div&gt;&lt;br style=&quot;text-align: left&quot;&gt;&lt;/div&gt;&lt;div&gt;&lt;br&gt;&lt;/div&gt;" style="rounded=0;whiteSpace=wrap;html=1;dashed=1;" parent="1" vertex="1">
          <mxGeometry x="120" y="120" width="90" height="150" as="geometry" />
        </mxCell>
        <mxCell id="ZP_4dSVxsUsFEQu9euvE-20" value="&lt;div&gt;&lt;span style=&quot;color: rgb(34 , 34 , 34) ; background-color: rgb(255 , 255 , 255)&quot;&gt;height&lt;/span&gt;&lt;br&gt;&lt;/div&gt;&lt;div&gt;&lt;span style=&quot;background-color: rgb(255 , 255 , 255)&quot;&gt;&lt;font color=&quot;#ff0000&quot;&gt;UUID&lt;/font&gt;&lt;/span&gt;&lt;/div&gt;&lt;div&gt;&lt;div&gt;timestamp(UTC)&lt;/div&gt;&lt;/div&gt;&lt;div&gt;lastHash&lt;/div&gt;&lt;div&gt;hash&lt;/div&gt;&lt;div&gt;&lt;br&gt;&lt;/div&gt;&lt;div&gt;&lt;font color=&quot;#ff0000&quot;&gt;validator&lt;/font&gt;&lt;/div&gt;&lt;div&gt;signature&lt;/div&gt;&lt;div&gt;&lt;br style=&quot;text-align: left&quot;&gt;&lt;/div&gt;&lt;div&gt;&lt;br&gt;&lt;/div&gt;" style="rounded=0;whiteSpace=wrap;html=1;dashed=1;" parent="1" vertex="1">
          <mxGeometry x="130" y="130" width="90" height="150" as="geometry" />
        </mxCell>
        <mxCell id="ZP_4dSVxsUsFEQu9euvE-21" value="&lt;div&gt;&lt;span style=&quot;color: rgb(34 , 34 , 34) ; background-color: rgb(255 , 255 , 255)&quot;&gt;height&lt;/span&gt;&lt;br&gt;&lt;/div&gt;&lt;div&gt;&lt;span style=&quot;background-color: rgb(255 , 255 , 255)&quot;&gt;&lt;font color=&quot;#ff0000&quot;&gt;UUID&lt;/font&gt;&lt;/span&gt;&lt;/div&gt;&lt;div&gt;&lt;div&gt;timestamp(UTC)&lt;/div&gt;&lt;/div&gt;&lt;div&gt;lastHash&lt;/div&gt;&lt;div&gt;hash&lt;/div&gt;&lt;div&gt;&lt;br&gt;&lt;/div&gt;&lt;div&gt;&lt;font color=&quot;#ff0000&quot;&gt;validator&lt;/font&gt;&lt;/div&gt;&lt;div&gt;signature&lt;/div&gt;&lt;div&gt;&lt;br style=&quot;text-align: left&quot;&gt;&lt;/div&gt;&lt;div&gt;&lt;br&gt;&lt;/div&gt;" style="rounded=0;whiteSpace=wrap;html=1;dashed=1;" parent="1" vertex="1">
          <mxGeometry x="140" y="140" width="90" height="150" as="geometry" />
        </mxCell>
        <mxCell id="ZP_4dSVxsUsFEQu9euvE-24" value="Spent queue blocks" style="text;html=1;strokeColor=none;fillColor=none;align=center;verticalAlign=middle;whiteSpace=wrap;rounded=0;dashed=1;" parent="1" vertex="1">
          <mxGeometry x="90" y="60" width="130" height="20" as="geometry" />
        </mxCell>
        <mxCell id="ZP_4dSVxsUsFEQu9euvE-32" style="edgeStyle=orthogonalEdgeStyle;rounded=0;orthogonalLoop=1;jettySize=auto;html=1;entryX=1;entryY=0.5;entryDx=0;entryDy=0;" parent="1" source="ZP_4dSVxsUsFEQu9euvE-25" target="ZP_4dSVxsUsFEQu9euvE-15" edge="1">
          <mxGeometry relative="1" as="geometry" />
        </mxCell>
        <mxCell id="ZP_4dSVxsUsFEQu9euvE-25" value="&lt;div&gt;&lt;span style=&quot;color: rgb(34 , 34 , 34) ; background-color: rgb(255 , 255 , 255)&quot;&gt;height&lt;/span&gt;&lt;br&gt;&lt;/div&gt;&lt;div&gt;&lt;span style=&quot;background-color: rgb(255 , 255 , 255)&quot;&gt;&lt;font color=&quot;#ff0000&quot;&gt;UUID&lt;/font&gt;&lt;/span&gt;&lt;/div&gt;&lt;div&gt;&lt;div&gt;timestamp(UTC)&lt;/div&gt;&lt;/div&gt;&lt;div&gt;lastHash&lt;/div&gt;&lt;div&gt;hash&lt;/div&gt;&lt;div&gt;&lt;br&gt;&lt;/div&gt;&lt;div&gt;&lt;font color=&quot;#ff0000&quot;&gt;validator&lt;/font&gt;&lt;/div&gt;&lt;div&gt;signature&lt;/div&gt;&lt;div&gt;&lt;br style=&quot;text-align: left&quot;&gt;&lt;/div&gt;&lt;div&gt;&lt;br&gt;&lt;/div&gt;" style="rounded=0;whiteSpace=wrap;html=1;" parent="1" vertex="1">
          <mxGeometry x="410" y="140" width="90" height="150" as="geometry" />
        </mxCell>
        <mxCell id="ZP_4dSVxsUsFEQu9euvE-31" style="edgeStyle=orthogonalEdgeStyle;rounded=0;orthogonalLoop=1;jettySize=auto;html=1;entryX=1;entryY=0.5;entryDx=0;entryDy=0;" parent="1" source="ZP_4dSVxsUsFEQu9euvE-27" target="ZP_4dSVxsUsFEQu9euvE-25" edge="1">
          <mxGeometry relative="1" as="geometry">
            <mxPoint x="650" y="215" as="targetPoint" />
          </mxGeometry>
        </mxCell>
        <mxCell id="ZP_4dSVxsUsFEQu9euvE-27" value="&lt;div&gt;&lt;span style=&quot;color: rgb(34 , 34 , 34) ; background-color: rgb(255 , 255 , 255)&quot;&gt;height&lt;/span&gt;&lt;br&gt;&lt;/div&gt;&lt;div&gt;&lt;span style=&quot;background-color: rgb(255 , 255 , 255)&quot;&gt;&lt;font color=&quot;#ff0000&quot;&gt;UUID&lt;/font&gt;&lt;/span&gt;&lt;/div&gt;&lt;div&gt;&lt;div&gt;timestamp(UTC)&lt;/div&gt;&lt;/div&gt;&lt;div&gt;lastHash&lt;/div&gt;&lt;div&gt;hash&lt;/div&gt;&lt;div&gt;&lt;br&gt;&lt;/div&gt;&lt;div&gt;&lt;font color=&quot;#ff0000&quot;&gt;validator&lt;/font&gt;&lt;/div&gt;&lt;div&gt;signature&lt;/div&gt;&lt;div&gt;&lt;br style=&quot;text-align: left&quot;&gt;&lt;/div&gt;&lt;div&gt;&lt;br&gt;&lt;/div&gt;" style="rounded=0;whiteSpace=wrap;html=1;" parent="1" vertex="1">
          <mxGeometry x="540" y="140" width="90" height="150" as="geometry" />
        </mxCell>
        <mxCell id="ZP_4dSVxsUsFEQu9euvE-28" style="edgeStyle=orthogonalEdgeStyle;rounded=0;orthogonalLoop=1;jettySize=auto;html=1;entryX=1;entryY=0.5;entryDx=0;entryDy=0;exitX=0.5;exitY=0;exitDx=0;exitDy=0;" parent="1" source="ZP_4dSVxsUsFEQu9euvE-21" target="ZP_4dSVxsUsFEQu9euvE-27" edge="1">
          <mxGeometry relative="1" as="geometry">
            <mxPoint x="350" y="120" as="sourcePoint" />
            <Array as="points">
              <mxPoint x="185" y="90" />
              <mxPoint x="680" y="90" />
              <mxPoint x="680" y="215" />
            </Array>
          </mxGeometry>
        </mxCell>
        <mxCell id="ZP_4dSVxsUsFEQu9euvE-33" value="spent Block Validator re-enters Validator Queue Blockchain Automagically" style="edgeLabel;html=1;align=center;verticalAlign=middle;resizable=0;points=[];" parent="ZP_4dSVxsUsFEQu9euvE-28" vertex="1" connectable="0">
          <mxGeometry x="-0.2915" y="1" relative="1" as="geometry">
            <mxPoint x="50" y="1" as="offset" />
          </mxGeometry>
        </mxCell>
        <mxCell id="ZP_4dSVxsUsFEQu9euvE-35" style="edgeStyle=orthogonalEdgeStyle;rounded=0;orthogonalLoop=1;jettySize=auto;html=1;entryX=1;entryY=0.5;entryDx=0;entryDy=0;" parent="1" source="ZP_4dSVxsUsFEQu9euvE-34" target="ZP_4dSVxsUsFEQu9euvE-27" edge="1">
          <mxGeometry relative="1" as="geometry">
            <Array as="points">
              <mxPoint x="785" y="215" />
            </Array>
          </mxGeometry>
        </mxCell>
        <mxCell id="ZP_4dSVxsUsFEQu9euvE-37" value="entering queue" style="edgeLabel;html=1;align=center;verticalAlign=middle;resizable=0;points=[];" parent="ZP_4dSVxsUsFEQu9euvE-35" vertex="1" connectable="0">
          <mxGeometry x="-0.0706" y="-1" relative="1" as="geometry">
            <mxPoint as="offset" />
          </mxGeometry>
        </mxCell>
        <mxCell id="ZP_4dSVxsUsFEQu9euvE-34" value="New Block Validator" style="shape=umlActor;verticalLabelPosition=top;verticalAlign=top;html=1;outlineConnect=0;" parent="1" vertex="1">
          <mxGeometry x="770" y="120" width="30" height="50" as="geometry" />
        </mxCell>
        <mxCell id="Ddrl1aBnlt76yhukf08g-10" value="&lt;font style=&quot;font-size: 19px&quot;&gt;Main BlockChain&lt;/font&gt;" style="text;html=1;strokeColor=none;fillColor=none;align=center;verticalAlign=middle;whiteSpace=wrap;rounded=0;dashed=1;dashPattern=1 4;" vertex="1" parent="1">
          <mxGeometry x="121.25" y="360" width="167.5" height="20" as="geometry" />
        </mxCell>
        <mxCell id="Ddrl1aBnlt76yhukf08g-11" value="&lt;font style=&quot;font-size: 19px&quot;&gt;Validator Queue BlockChain&lt;/font&gt;" style="text;html=1;strokeColor=none;fillColor=none;align=center;verticalAlign=middle;whiteSpace=wrap;rounded=0;dashed=1;dashPattern=1 4;sketch=1;shadow=0;" vertex="1" parent="1">
          <mxGeometry x="333.75" y="360" width="242.5" height="20" as="geometry" />
        </mxCell>
        <mxCell id="Ddrl1aBnlt76yhukf08g-15" value="" style="shape=flexArrow;endArrow=classic;html=1;exitX=0.5;exitY=1;exitDx=0;exitDy=0;entryX=0.5;entryY=0;entryDx=0;entryDy=0;targetPerimeterSpacing=0;endSize=6;rounded=1;sketch=1;" edge="1" parent="1" source="Ddrl1aBnlt76yhukf08g-10" target="ZP_4dSVxsUsFEQu9euvE-4">
          <mxGeometry width="50" height="50" relative="1" as="geometry">
            <mxPoint x="400" y="460" as="sourcePoint" />
            <mxPoint x="450" y="410" as="targetPoint" />
          </mxGeometry>
        </mxCell>
        <mxCell id="Ddrl1aBnlt76yhukf08g-16" value="" style="shape=flexArrow;endArrow=classic;html=1;exitX=0.5;exitY=0;exitDx=0;exitDy=0;entryX=0.5;entryY=1;entryDx=0;entryDy=0;targetPerimeterSpacing=0;endSize=6;rounded=1;sketch=1;" edge="1" parent="1" source="Ddrl1aBnlt76yhukf08g-11" target="ZP_4dSVxsUsFEQu9euvE-25">
          <mxGeometry width="50" height="50" relative="1" as="geometry">
            <mxPoint x="215" y="390" as="sourcePoint" />
            <mxPoint x="215" y="485" as="targetPoint" />
          </mxGeometry>
        </mxCell>
        <mxCell id="Ddrl1aBnlt76yhukf08g-17" value="&lt;h1&gt;General Principles&lt;/h1&gt;&lt;p&gt;&lt;/p&gt;&lt;ul&gt;&lt;li&gt;Main BlockChain is persistent on Disk.&lt;/li&gt;&lt;li&gt;Validator Queue BlockChain is ephemeral stored in memory.&lt;/li&gt;&lt;li&gt;There are 2 ways to enter a queue&amp;nbsp;&lt;/li&gt;&lt;li&gt;The validator Queue must contain only unique validators&lt;/li&gt;&lt;li&gt;&lt;strike&gt;The validator queue size may be limited.&lt;/strike&gt;&lt;/li&gt;&lt;li&gt;Whoever has higher stake will win the right to enter the validator queue.&lt;/li&gt;&lt;li&gt;Each node will maintain list of active validators wishing to enter the queue, prioritized by the stake size.&lt;/li&gt;&lt;li&gt;Even heights are reserved for re-entering validators, odd ones are for the new validators from the pool.&lt;/li&gt;&lt;li&gt;There is no reward for validating the block -- only the transaction fees. The reward for entering the queue is the right to validate the main chain.&lt;/li&gt;&lt;li&gt;If the Validator is not online for validating the next block -- the validator looses the entire staked amount.&lt;/li&gt;&lt;/ul&gt;&lt;div&gt;&lt;br&gt;&lt;/div&gt;&lt;div&gt;&lt;b&gt;&lt;font style=&quot;font-size: 24px&quot;&gt;Motivations&lt;/font&gt;&lt;/b&gt;&lt;/div&gt;&lt;div&gt;&lt;ul&gt;&lt;li&gt;&lt;font style=&quot;font-size: 12px&quot;&gt;Allow opportunity for everyone to validate blocks.&lt;/font&gt;&lt;/li&gt;&lt;li&gt;&lt;font style=&quot;font-size: 12px&quot;&gt;Nodes should be motivated to stay up and running for as long as possible.&lt;/font&gt;&lt;/li&gt;&lt;/ul&gt;&lt;/div&gt;" style="text;html=1;strokeColor=none;fillColor=none;spacing=5;spacingTop=-20;whiteSpace=wrap;overflow=hidden;rounded=0;shadow=0;dashed=1;dashPattern=1 4;sketch=1;" vertex="1" parent="1">
          <mxGeometry x="425" y="475" width="385" height="395" as="geometry" />
        </mxCell>
      </root>
    </mxGraphModel>
  </diagram>
</mxfile>
